<mxfile host="65bd71144e">
    <diagram id="IKccIQqwm7oEvDvuoK9O" name="이진탐색 - 1">
        <mxGraphModel dx="569" dy="680" grid="1" gridSize="10" guides="1" tooltips="1" connect="1" arrows="1" fold="1" page="1" pageScale="1" pageWidth="827" pageHeight="1169" math="0" shadow="0">
            <root>
                <mxCell id="0"/>
                <mxCell id="1" parent="0"/>
                <mxCell id="2" value="시작" style="rounded=1;whiteSpace=wrap;html=1;" parent="1" vertex="1">
                    <mxGeometry x="40" y="80" width="120" height="40" as="geometry"/>
                </mxCell>
                <mxCell id="6" value="" style="edgeStyle=orthogonalEdgeStyle;rounded=0;orthogonalLoop=1;jettySize=auto;html=1;" parent="1" source="3" target="4" edge="1">
                    <mxGeometry relative="1" as="geometry"/>
                </mxCell>
                <mxCell id="3" value="0 -&amp;gt; head&lt;br&gt;6 -&amp;gt; tail" style="whiteSpace=wrap;html=1;" parent="1" vertex="1">
                    <mxGeometry x="40" y="160" width="120" height="40" as="geometry"/>
                </mxCell>
                <mxCell id="4" value="(head+tail) / 2 -&amp;gt; mid" style="whiteSpace=wrap;html=1;" parent="1" vertex="1">
                    <mxGeometry x="40" y="240" width="120" height="40" as="geometry"/>
                </mxCell>
                <mxCell id="9" value="" style="edgeStyle=orthogonalEdgeStyle;rounded=0;orthogonalLoop=1;jettySize=auto;html=1;" parent="1" source="7" target="8" edge="1">
                    <mxGeometry relative="1" as="geometry"/>
                </mxCell>
                <mxCell id="12" value="YES" style="edgeLabel;html=1;align=center;verticalAlign=middle;resizable=0;points=[];" parent="9" vertex="1" connectable="0">
                    <mxGeometry x="-0.0714" y="-1" relative="1" as="geometry">
                        <mxPoint as="offset"/>
                    </mxGeometry>
                </mxCell>
                <mxCell id="14" value="" style="edgeStyle=orthogonalEdgeStyle;rounded=0;orthogonalLoop=1;jettySize=auto;html=1;entryX=0.5;entryY=0;entryDx=0;entryDy=0;" parent="1" source="7" target="20" edge="1">
                    <mxGeometry relative="1" as="geometry">
                        <mxPoint x="360" y="180" as="targetPoint"/>
                    </mxGeometry>
                </mxCell>
                <mxCell id="15" value="NO" style="edgeLabel;html=1;align=center;verticalAlign=middle;resizable=0;points=[];" parent="14" vertex="1" connectable="0">
                    <mxGeometry x="-0.0286" y="1" relative="1" as="geometry">
                        <mxPoint as="offset"/>
                    </mxGeometry>
                </mxCell>
                <mxCell id="7" value="array[mid] = 17" style="rhombus;whiteSpace=wrap;html=1;" parent="1" vertex="1">
                    <mxGeometry x="200" y="160" width="120" height="40" as="geometry"/>
                </mxCell>
                <mxCell id="11" value="" style="edgeStyle=orthogonalEdgeStyle;rounded=0;orthogonalLoop=1;jettySize=auto;html=1;" parent="1" source="8" target="10" edge="1">
                    <mxGeometry relative="1" as="geometry"/>
                </mxCell>
                <mxCell id="8" value="'mid'번째 요소가 일치" style="shape=document;whiteSpace=wrap;html=1;boundedLbl=1;" parent="1" vertex="1">
                    <mxGeometry x="200" y="240" width="120" height="40" as="geometry"/>
                </mxCell>
                <mxCell id="10" value="종료" style="rounded=1;whiteSpace=wrap;html=1;" parent="1" vertex="1">
                    <mxGeometry x="200" y="320" width="120" height="40" as="geometry"/>
                </mxCell>
                <mxCell id="16" value="그림 0915-1" style="text;html=1;align=center;verticalAlign=middle;resizable=0;points=[];autosize=1;strokeColor=none;" parent="1" vertex="1">
                    <mxGeometry x="50" y="20" width="80" height="20" as="geometry"/>
                </mxCell>
                <mxCell id="19" value="" style="edgeStyle=orthogonalEdgeStyle;rounded=0;orthogonalLoop=1;jettySize=auto;html=1;" parent="1" source="18" target="7" edge="1">
                    <mxGeometry relative="1" as="geometry"/>
                </mxCell>
                <mxCell id="18" value="(head+tail)/2 -&amp;gt; mid" style="whiteSpace=wrap;html=1;" parent="1" vertex="1">
                    <mxGeometry x="200" y="80" width="120" height="40" as="geometry"/>
                </mxCell>
                <mxCell id="22" value="YES" style="edgeStyle=orthogonalEdgeStyle;rounded=0;orthogonalLoop=1;jettySize=auto;html=1;" parent="1" source="20" target="21" edge="1">
                    <mxGeometry relative="1" as="geometry"/>
                </mxCell>
                <mxCell id="24" style="edgeStyle=orthogonalEdgeStyle;rounded=0;orthogonalLoop=1;jettySize=auto;html=1;exitX=1;exitY=0.5;exitDx=0;exitDy=0;entryX=0.5;entryY=0;entryDx=0;entryDy=0;" parent="1" source="20" target="23" edge="1">
                    <mxGeometry relative="1" as="geometry"/>
                </mxCell>
                <mxCell id="25" value="NO" style="edgeLabel;html=1;align=center;verticalAlign=middle;resizable=0;points=[];" parent="24" vertex="1" connectable="0">
                    <mxGeometry x="0.65" y="1" relative="1" as="geometry">
                        <mxPoint as="offset"/>
                    </mxGeometry>
                </mxCell>
                <mxCell id="20" value="array[mid] &amp;lt; 17" style="rhombus;whiteSpace=wrap;html=1;" parent="1" vertex="1">
                    <mxGeometry x="360" y="240" width="120" height="40" as="geometry"/>
                </mxCell>
                <mxCell id="31" style="edgeStyle=orthogonalEdgeStyle;rounded=0;orthogonalLoop=1;jettySize=auto;html=1;exitX=0.5;exitY=1;exitDx=0;exitDy=0;" parent="1" source="21" target="18" edge="1">
                    <mxGeometry relative="1" as="geometry">
                        <mxPoint x="680" y="30" as="targetPoint"/>
                        <Array as="points">
                            <mxPoint x="420" y="400"/>
                            <mxPoint x="680" y="400"/>
                            <mxPoint x="680" y="60"/>
                            <mxPoint x="260" y="60"/>
                        </Array>
                    </mxGeometry>
                </mxCell>
                <mxCell id="21" value="mid + 1 -&amp;gt; head" style="whiteSpace=wrap;html=1;" parent="1" vertex="1">
                    <mxGeometry x="360" y="320" width="120" height="40" as="geometry"/>
                </mxCell>
                <mxCell id="29" style="edgeStyle=orthogonalEdgeStyle;rounded=0;orthogonalLoop=1;jettySize=auto;html=1;exitX=0.5;exitY=1;exitDx=0;exitDy=0;entryX=0.5;entryY=0;entryDx=0;entryDy=0;" parent="1" source="23" target="18" edge="1">
                    <mxGeometry relative="1" as="geometry">
                        <mxPoint x="720" y="60" as="targetPoint"/>
                        <Array as="points">
                            <mxPoint x="580" y="400"/>
                            <mxPoint x="680" y="400"/>
                            <mxPoint x="680" y="60"/>
                            <mxPoint x="260" y="60"/>
                        </Array>
                    </mxGeometry>
                </mxCell>
                <mxCell id="23" value="mid - 1 -&amp;gt; tail" style="whiteSpace=wrap;html=1;" parent="1" vertex="1">
                    <mxGeometry x="520" y="320" width="120" height="40" as="geometry"/>
                </mxCell>
            </root>
        </mxGraphModel>
    </diagram>
    <diagram id="aUp1ZJRR0RO88shv15cU" name="이진탐색 - 2">
        <mxGraphModel dx="948" dy="627" grid="1" gridSize="10" guides="1" tooltips="1" connect="1" arrows="1" fold="1" page="1" pageScale="1" pageWidth="827" pageHeight="1169" math="0" shadow="0">
            <root>
                <mxCell id="-myOh2JJIqn30O8Wz4X6-0"/>
                <mxCell id="-myOh2JJIqn30O8Wz4X6-1" parent="-myOh2JJIqn30O8Wz4X6-0"/>
                <mxCell id="-myOh2JJIqn30O8Wz4X6-2" value="" style="edgeStyle=orthogonalEdgeStyle;rounded=0;orthogonalLoop=1;jettySize=auto;html=1;" edge="1" parent="-myOh2JJIqn30O8Wz4X6-1" source="-myOh2JJIqn30O8Wz4X6-6" target="-myOh2JJIqn30O8Wz4X6-8">
                    <mxGeometry relative="1" as="geometry"/>
                </mxCell>
                <mxCell id="-myOh2JJIqn30O8Wz4X6-3" value="YES" style="edgeLabel;html=1;align=center;verticalAlign=middle;resizable=0;points=[];" vertex="1" connectable="0" parent="-myOh2JJIqn30O8Wz4X6-2">
                    <mxGeometry x="-0.0714" y="-1" relative="1" as="geometry">
                        <mxPoint as="offset"/>
                    </mxGeometry>
                </mxCell>
                <mxCell id="-myOh2JJIqn30O8Wz4X6-4" value="" style="edgeStyle=orthogonalEdgeStyle;rounded=0;orthogonalLoop=1;jettySize=auto;html=1;entryX=0.5;entryY=0;entryDx=0;entryDy=0;" edge="1" parent="-myOh2JJIqn30O8Wz4X6-1" source="-myOh2JJIqn30O8Wz4X6-6" target="-myOh2JJIqn30O8Wz4X6-15">
                    <mxGeometry relative="1" as="geometry">
                        <mxPoint x="400" y="420" as="targetPoint"/>
                    </mxGeometry>
                </mxCell>
                <mxCell id="-myOh2JJIqn30O8Wz4X6-5" value="NO" style="edgeLabel;html=1;align=center;verticalAlign=middle;resizable=0;points=[];" vertex="1" connectable="0" parent="-myOh2JJIqn30O8Wz4X6-4">
                    <mxGeometry x="-0.0286" y="1" relative="1" as="geometry">
                        <mxPoint as="offset"/>
                    </mxGeometry>
                </mxCell>
                <mxCell id="-myOh2JJIqn30O8Wz4X6-6" value="array[mid] = 17" style="rhombus;whiteSpace=wrap;html=1;" vertex="1" parent="-myOh2JJIqn30O8Wz4X6-1">
                    <mxGeometry x="240" y="400" width="120" height="40" as="geometry"/>
                </mxCell>
                <mxCell id="-myOh2JJIqn30O8Wz4X6-7" value="" style="edgeStyle=orthogonalEdgeStyle;rounded=0;orthogonalLoop=1;jettySize=auto;html=1;" edge="1" parent="-myOh2JJIqn30O8Wz4X6-1" source="-myOh2JJIqn30O8Wz4X6-8" target="-myOh2JJIqn30O8Wz4X6-9">
                    <mxGeometry relative="1" as="geometry"/>
                </mxCell>
                <mxCell id="-myOh2JJIqn30O8Wz4X6-8" value="'mid'번째 요소가 일치" style="shape=document;whiteSpace=wrap;html=1;boundedLbl=1;" vertex="1" parent="-myOh2JJIqn30O8Wz4X6-1">
                    <mxGeometry x="240" y="480" width="120" height="40" as="geometry"/>
                </mxCell>
                <mxCell id="-myOh2JJIqn30O8Wz4X6-9" value="종료" style="rounded=1;whiteSpace=wrap;html=1;" vertex="1" parent="-myOh2JJIqn30O8Wz4X6-1">
                    <mxGeometry x="240" y="560" width="120" height="40" as="geometry"/>
                </mxCell>
                <mxCell id="-myOh2JJIqn30O8Wz4X6-10" value="" style="edgeStyle=orthogonalEdgeStyle;rounded=0;orthogonalLoop=1;jettySize=auto;html=1;" edge="1" parent="-myOh2JJIqn30O8Wz4X6-1" source="-myOh2JJIqn30O8Wz4X6-11" target="-myOh2JJIqn30O8Wz4X6-6">
                    <mxGeometry relative="1" as="geometry"/>
                </mxCell>
                <mxCell id="-myOh2JJIqn30O8Wz4X6-11" value="(head+tail)/2 -&amp;gt; mid" style="whiteSpace=wrap;html=1;" vertex="1" parent="-myOh2JJIqn30O8Wz4X6-1">
                    <mxGeometry x="240" y="320" width="120" height="40" as="geometry"/>
                </mxCell>
                <mxCell id="-myOh2JJIqn30O8Wz4X6-12" value="YES" style="edgeStyle=orthogonalEdgeStyle;rounded=0;orthogonalLoop=1;jettySize=auto;html=1;" edge="1" parent="-myOh2JJIqn30O8Wz4X6-1" source="-myOh2JJIqn30O8Wz4X6-15" target="-myOh2JJIqn30O8Wz4X6-17">
                    <mxGeometry relative="1" as="geometry"/>
                </mxCell>
                <mxCell id="-myOh2JJIqn30O8Wz4X6-13" style="edgeStyle=orthogonalEdgeStyle;rounded=0;orthogonalLoop=1;jettySize=auto;html=1;exitX=1;exitY=0.5;exitDx=0;exitDy=0;entryX=0.5;entryY=0;entryDx=0;entryDy=0;" edge="1" parent="-myOh2JJIqn30O8Wz4X6-1" source="-myOh2JJIqn30O8Wz4X6-15" target="-myOh2JJIqn30O8Wz4X6-19">
                    <mxGeometry relative="1" as="geometry"/>
                </mxCell>
                <mxCell id="-myOh2JJIqn30O8Wz4X6-14" value="NO" style="edgeLabel;html=1;align=center;verticalAlign=middle;resizable=0;points=[];" vertex="1" connectable="0" parent="-myOh2JJIqn30O8Wz4X6-13">
                    <mxGeometry x="0.65" y="1" relative="1" as="geometry">
                        <mxPoint as="offset"/>
                    </mxGeometry>
                </mxCell>
                <mxCell id="-myOh2JJIqn30O8Wz4X6-15" value="array[mid] &amp;lt; 17" style="rhombus;whiteSpace=wrap;html=1;" vertex="1" parent="-myOh2JJIqn30O8Wz4X6-1">
                    <mxGeometry x="400" y="480" width="120" height="40" as="geometry"/>
                </mxCell>
                <mxCell id="-myOh2JJIqn30O8Wz4X6-16" style="edgeStyle=orthogonalEdgeStyle;rounded=0;orthogonalLoop=1;jettySize=auto;html=1;exitX=0.5;exitY=1;exitDx=0;exitDy=0;" edge="1" parent="-myOh2JJIqn30O8Wz4X6-1" source="-myOh2JJIqn30O8Wz4X6-17" target="-myOh2JJIqn30O8Wz4X6-11">
                    <mxGeometry relative="1" as="geometry">
                        <mxPoint x="720" y="270" as="targetPoint"/>
                        <Array as="points">
                            <mxPoint x="460" y="640"/>
                            <mxPoint x="720" y="640"/>
                            <mxPoint x="720" y="300"/>
                            <mxPoint x="300" y="300"/>
                        </Array>
                    </mxGeometry>
                </mxCell>
                <mxCell id="-myOh2JJIqn30O8Wz4X6-17" value="mid + 1 -&amp;gt; head" style="whiteSpace=wrap;html=1;" vertex="1" parent="-myOh2JJIqn30O8Wz4X6-1">
                    <mxGeometry x="400" y="560" width="120" height="40" as="geometry"/>
                </mxCell>
                <mxCell id="-myOh2JJIqn30O8Wz4X6-18" style="edgeStyle=orthogonalEdgeStyle;rounded=0;orthogonalLoop=1;jettySize=auto;html=1;exitX=0.5;exitY=1;exitDx=0;exitDy=0;" edge="1" parent="-myOh2JJIqn30O8Wz4X6-1" source="-myOh2JJIqn30O8Wz4X6-19">
                    <mxGeometry relative="1" as="geometry">
                        <mxPoint x="300" y="300" as="targetPoint"/>
                        <Array as="points">
                            <mxPoint x="620" y="640"/>
                            <mxPoint x="720" y="640"/>
                            <mxPoint x="720" y="300"/>
                            <mxPoint x="300" y="300"/>
                        </Array>
                    </mxGeometry>
                </mxCell>
                <mxCell id="-myOh2JJIqn30O8Wz4X6-19" value="mid - 1 -&amp;gt; tail" style="whiteSpace=wrap;html=1;" vertex="1" parent="-myOh2JJIqn30O8Wz4X6-1">
                    <mxGeometry x="560" y="560" width="120" height="40" as="geometry"/>
                </mxCell>
                <mxCell id="-myOh2JJIqn30O8Wz4X6-21" value="" style="edgeStyle=orthogonalEdgeStyle;rounded=0;orthogonalLoop=1;jettySize=auto;html=1;" edge="1" parent="-myOh2JJIqn30O8Wz4X6-1" source="-myOh2JJIqn30O8Wz4X6-20" target="-myOh2JJIqn30O8Wz4X6-11">
                    <mxGeometry relative="1" as="geometry"/>
                </mxCell>
                <mxCell id="-myOh2JJIqn30O8Wz4X6-25" style="edgeStyle=orthogonalEdgeStyle;rounded=0;orthogonalLoop=1;jettySize=auto;html=1;exitX=0;exitY=0.5;exitDx=0;exitDy=0;entryX=0.5;entryY=0;entryDx=0;entryDy=0;" edge="1" parent="-myOh2JJIqn30O8Wz4X6-1" source="-myOh2JJIqn30O8Wz4X6-20" target="-myOh2JJIqn30O8Wz4X6-24">
                    <mxGeometry relative="1" as="geometry"/>
                </mxCell>
                <mxCell id="-myOh2JJIqn30O8Wz4X6-20" value="head &amp;lt;= tail" style="rhombus;whiteSpace=wrap;html=1;" vertex="1" parent="-myOh2JJIqn30O8Wz4X6-1">
                    <mxGeometry x="240" y="240" width="120" height="40" as="geometry"/>
                </mxCell>
                <mxCell id="-myOh2JJIqn30O8Wz4X6-23" value="" style="edgeStyle=orthogonalEdgeStyle;rounded=0;orthogonalLoop=1;jettySize=auto;html=1;" edge="1" parent="-myOh2JJIqn30O8Wz4X6-1" source="-myOh2JJIqn30O8Wz4X6-22" target="-myOh2JJIqn30O8Wz4X6-20">
                    <mxGeometry relative="1" as="geometry"/>
                </mxCell>
                <mxCell id="-myOh2JJIqn30O8Wz4X6-22" value="0 -&amp;gt; head&lt;br&gt;6 -&amp;gt; tail" style="whiteSpace=wrap;html=1;" vertex="1" parent="-myOh2JJIqn30O8Wz4X6-1">
                    <mxGeometry x="240" y="160" width="120" height="40" as="geometry"/>
                </mxCell>
                <mxCell id="-myOh2JJIqn30O8Wz4X6-27" value="" style="edgeStyle=orthogonalEdgeStyle;rounded=0;orthogonalLoop=1;jettySize=auto;html=1;" edge="1" parent="-myOh2JJIqn30O8Wz4X6-1" source="-myOh2JJIqn30O8Wz4X6-24">
                    <mxGeometry relative="1" as="geometry">
                        <mxPoint x="300" y="540" as="targetPoint"/>
                        <Array as="points">
                            <mxPoint x="140" y="540"/>
                        </Array>
                    </mxGeometry>
                </mxCell>
                <mxCell id="-myOh2JJIqn30O8Wz4X6-24" value="찾지 못했습니다." style="shape=document;whiteSpace=wrap;html=1;boundedLbl=1;" vertex="1" parent="-myOh2JJIqn30O8Wz4X6-1">
                    <mxGeometry x="80" y="480" width="120" height="40" as="geometry"/>
                </mxCell>
                <mxCell id="-myOh2JJIqn30O8Wz4X6-29" value="" style="edgeStyle=orthogonalEdgeStyle;rounded=0;orthogonalLoop=1;jettySize=auto;html=1;" edge="1" parent="-myOh2JJIqn30O8Wz4X6-1" source="-myOh2JJIqn30O8Wz4X6-28" target="-myOh2JJIqn30O8Wz4X6-22">
                    <mxGeometry relative="1" as="geometry"/>
                </mxCell>
                <mxCell id="-myOh2JJIqn30O8Wz4X6-28" value="시작" style="rounded=1;whiteSpace=wrap;html=1;" vertex="1" parent="-myOh2JJIqn30O8Wz4X6-1">
                    <mxGeometry x="240" y="80" width="120" height="40" as="geometry"/>
                </mxCell>
            </root>
        </mxGraphModel>
    </diagram>
    <diagram id="f762fqUn3jz6GE01iW9d" name="해시탐색법 - 1">
        <mxGraphModel dx="934" dy="799" grid="1" gridSize="10" guides="1" tooltips="1" connect="1" arrows="1" fold="1" page="1" pageScale="1" pageWidth="827" pageHeight="1169" math="0" shadow="0">
            <root>
                <mxCell id="negETv5rY9S69N76y5d6-0"/>
                <mxCell id="negETv5rY9S69N76y5d6-1" parent="negETv5rY9S69N76y5d6-0"/>
                <mxCell id="negETv5rY9S69N76y5d6-5" value="" style="edgeStyle=orthogonalEdgeStyle;rounded=0;orthogonalLoop=1;jettySize=auto;html=1;" edge="1" parent="negETv5rY9S69N76y5d6-1" source="negETv5rY9S69N76y5d6-2" target="negETv5rY9S69N76y5d6-3">
                    <mxGeometry relative="1" as="geometry"/>
                </mxCell>
                <mxCell id="negETv5rY9S69N76y5d6-2" value="시작" style="rounded=1;whiteSpace=wrap;html=1;" vertex="1" parent="negETv5rY9S69N76y5d6-1">
                    <mxGeometry x="120" y="40" width="120" height="40" as="geometry"/>
                </mxCell>
                <mxCell id="negETv5rY9S69N76y5d6-6" value="" style="edgeStyle=orthogonalEdgeStyle;rounded=0;orthogonalLoop=1;jettySize=auto;html=1;" edge="1" parent="negETv5rY9S69N76y5d6-1" source="negETv5rY9S69N76y5d6-3" target="negETv5rY9S69N76y5d6-4">
                    <mxGeometry relative="1" as="geometry"/>
                </mxCell>
                <mxCell id="negETv5rY9S69N76y5d6-3" value="arrayD[0]%11 -&amp;gt; K" style="whiteSpace=wrap;html=1;" vertex="1" parent="negETv5rY9S69N76y5d6-1">
                    <mxGeometry x="120" y="120" width="120" height="40" as="geometry"/>
                </mxCell>
                <mxCell id="negETv5rY9S69N76y5d6-8" value="" style="edgeStyle=orthogonalEdgeStyle;rounded=0;orthogonalLoop=1;jettySize=auto;html=1;" edge="1" parent="negETv5rY9S69N76y5d6-1" source="negETv5rY9S69N76y5d6-4" target="negETv5rY9S69N76y5d6-7">
                    <mxGeometry relative="1" as="geometry"/>
                </mxCell>
                <mxCell id="negETv5rY9S69N76y5d6-9" value="YES" style="edgeLabel;html=1;align=center;verticalAlign=middle;resizable=0;points=[];" vertex="1" connectable="0" parent="negETv5rY9S69N76y5d6-8">
                    <mxGeometry x="-0.1643" y="1" relative="1" as="geometry">
                        <mxPoint as="offset"/>
                    </mxGeometry>
                </mxCell>
                <mxCell id="negETv5rY9S69N76y5d6-11" value="" style="edgeStyle=orthogonalEdgeStyle;rounded=0;orthogonalLoop=1;jettySize=auto;html=1;" edge="1" parent="negETv5rY9S69N76y5d6-1" source="negETv5rY9S69N76y5d6-4" target="negETv5rY9S69N76y5d6-10">
                    <mxGeometry relative="1" as="geometry"/>
                </mxCell>
                <mxCell id="negETv5rY9S69N76y5d6-12" value="NO" style="edgeLabel;html=1;align=center;verticalAlign=middle;resizable=0;points=[];" vertex="1" connectable="0" parent="negETv5rY9S69N76y5d6-11">
                    <mxGeometry x="-0.1357" y="2" relative="1" as="geometry">
                        <mxPoint as="offset"/>
                    </mxGeometry>
                </mxCell>
                <mxCell id="negETv5rY9S69N76y5d6-4" value="arrayH[k] = 0" style="rhombus;whiteSpace=wrap;html=1;" vertex="1" parent="negETv5rY9S69N76y5d6-1">
                    <mxGeometry x="120" y="200" width="120" height="40" as="geometry"/>
                </mxCell>
                <mxCell id="negETv5rY9S69N76y5d6-7" value="arrayD[0] -&amp;gt; arrayH[k]" style="whiteSpace=wrap;html=1;" vertex="1" parent="negETv5rY9S69N76y5d6-1">
                    <mxGeometry x="120" y="280" width="120" height="40" as="geometry"/>
                </mxCell>
                <mxCell id="negETv5rY9S69N76y5d6-10" value="" style="ellipse;whiteSpace=wrap;html=1;" vertex="1" parent="negETv5rY9S69N76y5d6-1">
                    <mxGeometry y="200" width="80" height="40" as="geometry"/>
                </mxCell>
                <mxCell id="negETv5rY9S69N76y5d6-25" value="" style="edgeStyle=orthogonalEdgeStyle;rounded=0;orthogonalLoop=1;jettySize=auto;html=1;entryX=0.5;entryY=0;entryDx=0;entryDy=0;entryPerimeter=0;" edge="1" parent="negETv5rY9S69N76y5d6-1" source="negETv5rY9S69N76y5d6-14" target="negETv5rY9S69N76y5d6-26">
                    <mxGeometry relative="1" as="geometry">
                        <mxPoint x="500" y="110" as="targetPoint"/>
                    </mxGeometry>
                </mxCell>
                <mxCell id="negETv5rY9S69N76y5d6-14" value="시작" style="rounded=1;whiteSpace=wrap;html=1;" vertex="1" parent="negETv5rY9S69N76y5d6-1">
                    <mxGeometry x="440" y="40" width="120" height="40" as="geometry"/>
                </mxCell>
                <mxCell id="negETv5rY9S69N76y5d6-15" value="" style="edgeStyle=orthogonalEdgeStyle;rounded=0;orthogonalLoop=1;jettySize=auto;html=1;" edge="1" source="negETv5rY9S69N76y5d6-16" target="negETv5rY9S69N76y5d6-21" parent="negETv5rY9S69N76y5d6-1">
                    <mxGeometry relative="1" as="geometry"/>
                </mxCell>
                <mxCell id="negETv5rY9S69N76y5d6-16" value="arrayD[i]%11 -&amp;gt; K" style="whiteSpace=wrap;html=1;" vertex="1" parent="negETv5rY9S69N76y5d6-1">
                    <mxGeometry x="440" y="280" width="120" height="40" as="geometry"/>
                </mxCell>
                <mxCell id="negETv5rY9S69N76y5d6-17" value="" style="edgeStyle=orthogonalEdgeStyle;rounded=0;orthogonalLoop=1;jettySize=auto;html=1;" edge="1" source="negETv5rY9S69N76y5d6-21" target="negETv5rY9S69N76y5d6-22" parent="negETv5rY9S69N76y5d6-1">
                    <mxGeometry relative="1" as="geometry"/>
                </mxCell>
                <mxCell id="negETv5rY9S69N76y5d6-18" value="YES" style="edgeLabel;html=1;align=center;verticalAlign=middle;resizable=0;points=[];" vertex="1" connectable="0" parent="negETv5rY9S69N76y5d6-17">
                    <mxGeometry x="-0.1643" y="1" relative="1" as="geometry">
                        <mxPoint as="offset"/>
                    </mxGeometry>
                </mxCell>
                <mxCell id="negETv5rY9S69N76y5d6-19" value="" style="edgeStyle=orthogonalEdgeStyle;rounded=0;orthogonalLoop=1;jettySize=auto;html=1;" edge="1" source="negETv5rY9S69N76y5d6-21" parent="negETv5rY9S69N76y5d6-1">
                    <mxGeometry relative="1" as="geometry">
                        <mxPoint x="400" y="380" as="targetPoint"/>
                    </mxGeometry>
                </mxCell>
                <mxCell id="negETv5rY9S69N76y5d6-20" value="NO" style="edgeLabel;html=1;align=center;verticalAlign=middle;resizable=0;points=[];" vertex="1" connectable="0" parent="negETv5rY9S69N76y5d6-19">
                    <mxGeometry x="-0.1357" y="2" relative="1" as="geometry">
                        <mxPoint as="offset"/>
                    </mxGeometry>
                </mxCell>
                <mxCell id="negETv5rY9S69N76y5d6-21" value="arrayH[k] = 0" style="rhombus;whiteSpace=wrap;html=1;" vertex="1" parent="negETv5rY9S69N76y5d6-1">
                    <mxGeometry x="440" y="360" width="120" height="40" as="geometry"/>
                </mxCell>
                <mxCell id="negETv5rY9S69N76y5d6-28" value="" style="edgeStyle=orthogonalEdgeStyle;rounded=0;orthogonalLoop=1;jettySize=auto;html=1;" edge="1" parent="negETv5rY9S69N76y5d6-1" source="negETv5rY9S69N76y5d6-22" target="negETv5rY9S69N76y5d6-27">
                    <mxGeometry relative="1" as="geometry"/>
                </mxCell>
                <mxCell id="negETv5rY9S69N76y5d6-22" value="arrayD[i] -&amp;gt; arrayH[k]" style="whiteSpace=wrap;html=1;" vertex="1" parent="negETv5rY9S69N76y5d6-1">
                    <mxGeometry x="440" y="440" width="120" height="40" as="geometry"/>
                </mxCell>
                <mxCell id="negETv5rY9S69N76y5d6-31" value="" style="edgeStyle=orthogonalEdgeStyle;rounded=0;orthogonalLoop=1;jettySize=auto;html=1;" edge="1" parent="negETv5rY9S69N76y5d6-1" source="negETv5rY9S69N76y5d6-26" target="negETv5rY9S69N76y5d6-30">
                    <mxGeometry relative="1" as="geometry"/>
                </mxCell>
                <mxCell id="negETv5rY9S69N76y5d6-26" value="0 -&amp;gt; i" style="whiteSpace=wrap;html=1;" vertex="1" parent="negETv5rY9S69N76y5d6-1">
                    <mxGeometry x="440" y="120" width="120" height="40" as="geometry"/>
                </mxCell>
                <mxCell id="negETv5rY9S69N76y5d6-34" style="edgeStyle=orthogonalEdgeStyle;rounded=0;orthogonalLoop=1;jettySize=auto;html=1;exitX=1;exitY=0.5;exitDx=0;exitDy=0;" edge="1" parent="negETv5rY9S69N76y5d6-1" source="negETv5rY9S69N76y5d6-27">
                    <mxGeometry relative="1" as="geometry">
                        <mxPoint x="500" y="180" as="targetPoint"/>
                        <Array as="points">
                            <mxPoint x="700" y="540"/>
                            <mxPoint x="700" y="180"/>
                            <mxPoint x="600" y="180"/>
                        </Array>
                    </mxGeometry>
                </mxCell>
                <mxCell id="negETv5rY9S69N76y5d6-27" value="i + 1 -&amp;gt; i" style="whiteSpace=wrap;html=1;" vertex="1" parent="negETv5rY9S69N76y5d6-1">
                    <mxGeometry x="440" y="520" width="120" height="40" as="geometry"/>
                </mxCell>
                <mxCell id="negETv5rY9S69N76y5d6-29" style="edgeStyle=orthogonalEdgeStyle;rounded=0;orthogonalLoop=1;jettySize=auto;html=1;exitX=0.5;exitY=1;exitDx=0;exitDy=0;" edge="1" parent="negETv5rY9S69N76y5d6-1" source="negETv5rY9S69N76y5d6-27" target="negETv5rY9S69N76y5d6-27">
                    <mxGeometry relative="1" as="geometry"/>
                </mxCell>
                <mxCell id="negETv5rY9S69N76y5d6-32" value="" style="edgeStyle=orthogonalEdgeStyle;rounded=0;orthogonalLoop=1;jettySize=auto;html=1;" edge="1" parent="negETv5rY9S69N76y5d6-1" source="negETv5rY9S69N76y5d6-30" target="negETv5rY9S69N76y5d6-16">
                    <mxGeometry relative="1" as="geometry"/>
                </mxCell>
                <mxCell id="negETv5rY9S69N76y5d6-30" value="i &amp;lt; 7" style="rhombus;whiteSpace=wrap;html=1;" vertex="1" parent="negETv5rY9S69N76y5d6-1">
                    <mxGeometry x="440" y="200" width="120" height="40" as="geometry"/>
                </mxCell>
                <mxCell id="negETv5rY9S69N76y5d6-45" style="edgeStyle=orthogonalEdgeStyle;rounded=0;orthogonalLoop=1;jettySize=auto;html=1;exitX=0.5;exitY=0;exitDx=0;exitDy=0;" edge="1" parent="negETv5rY9S69N76y5d6-1" source="negETv5rY9S69N76y5d6-43">
                    <mxGeometry relative="1" as="geometry">
                        <mxPoint x="500" y="340" as="targetPoint"/>
                        <Array as="points">
                            <mxPoint x="340" y="340"/>
                        </Array>
                    </mxGeometry>
                </mxCell>
                <mxCell id="negETv5rY9S69N76y5d6-43" value="k + 1 -&amp;gt; k" style="whiteSpace=wrap;html=1;" vertex="1" parent="negETv5rY9S69N76y5d6-1">
                    <mxGeometry x="280" y="360" width="120" height="40" as="geometry"/>
                </mxCell>
                <mxCell id="negETv5rY9S69N76y5d6-47" value="" style="edgeStyle=orthogonalEdgeStyle;rounded=0;orthogonalLoop=1;jettySize=auto;html=1;entryX=0.5;entryY=0;entryDx=0;entryDy=0;entryPerimeter=0;" edge="1" source="negETv5rY9S69N76y5d6-48" target="negETv5rY9S69N76y5d6-59" parent="negETv5rY9S69N76y5d6-1">
                    <mxGeometry relative="1" as="geometry">
                        <mxPoint x="1220" y="108.57" as="targetPoint"/>
                    </mxGeometry>
                </mxCell>
                <mxCell id="negETv5rY9S69N76y5d6-48" value="시작" style="rounded=1;whiteSpace=wrap;html=1;" vertex="1" parent="negETv5rY9S69N76y5d6-1">
                    <mxGeometry x="1160" y="38.57" width="120" height="40" as="geometry"/>
                </mxCell>
                <mxCell id="negETv5rY9S69N76y5d6-49" value="" style="edgeStyle=orthogonalEdgeStyle;rounded=0;orthogonalLoop=1;jettySize=auto;html=1;" edge="1" source="negETv5rY9S69N76y5d6-50" target="negETv5rY9S69N76y5d6-55" parent="negETv5rY9S69N76y5d6-1">
                    <mxGeometry relative="1" as="geometry"/>
                </mxCell>
                <mxCell id="negETv5rY9S69N76y5d6-50" value="arrayD[i]%11 -&amp;gt; K" style="whiteSpace=wrap;html=1;" vertex="1" parent="negETv5rY9S69N76y5d6-1">
                    <mxGeometry x="1160" y="278.57" width="120" height="40" as="geometry"/>
                </mxCell>
                <mxCell id="negETv5rY9S69N76y5d6-51" value="" style="edgeStyle=orthogonalEdgeStyle;rounded=0;orthogonalLoop=1;jettySize=auto;html=1;" edge="1" source="negETv5rY9S69N76y5d6-55" target="negETv5rY9S69N76y5d6-57" parent="negETv5rY9S69N76y5d6-1">
                    <mxGeometry relative="1" as="geometry"/>
                </mxCell>
                <mxCell id="negETv5rY9S69N76y5d6-52" value="YES" style="edgeLabel;html=1;align=center;verticalAlign=middle;resizable=0;points=[];" vertex="1" connectable="0" parent="negETv5rY9S69N76y5d6-51">
                    <mxGeometry x="-0.1643" y="1" relative="1" as="geometry">
                        <mxPoint as="offset"/>
                    </mxGeometry>
                </mxCell>
                <mxCell id="negETv5rY9S69N76y5d6-53" value="" style="edgeStyle=orthogonalEdgeStyle;rounded=0;orthogonalLoop=1;jettySize=auto;html=1;" edge="1" source="negETv5rY9S69N76y5d6-55" parent="negETv5rY9S69N76y5d6-1">
                    <mxGeometry relative="1" as="geometry">
                        <mxPoint x="1120" y="378.57" as="targetPoint"/>
                    </mxGeometry>
                </mxCell>
                <mxCell id="negETv5rY9S69N76y5d6-54" value="NO" style="edgeLabel;html=1;align=center;verticalAlign=middle;resizable=0;points=[];" vertex="1" connectable="0" parent="negETv5rY9S69N76y5d6-53">
                    <mxGeometry x="-0.1357" y="2" relative="1" as="geometry">
                        <mxPoint as="offset"/>
                    </mxGeometry>
                </mxCell>
                <mxCell id="negETv5rY9S69N76y5d6-55" value="arrayH[k] = 0" style="rhombus;whiteSpace=wrap;html=1;" vertex="1" parent="negETv5rY9S69N76y5d6-1">
                    <mxGeometry x="1160" y="358.57" width="120" height="40" as="geometry"/>
                </mxCell>
                <mxCell id="negETv5rY9S69N76y5d6-56" value="" style="edgeStyle=orthogonalEdgeStyle;rounded=0;orthogonalLoop=1;jettySize=auto;html=1;" edge="1" source="negETv5rY9S69N76y5d6-57" target="negETv5rY9S69N76y5d6-61" parent="negETv5rY9S69N76y5d6-1">
                    <mxGeometry relative="1" as="geometry"/>
                </mxCell>
                <mxCell id="negETv5rY9S69N76y5d6-57" value="arrayD[i] -&amp;gt; arrayH[k]" style="whiteSpace=wrap;html=1;" vertex="1" parent="negETv5rY9S69N76y5d6-1">
                    <mxGeometry x="1160" y="438.57" width="120" height="40" as="geometry"/>
                </mxCell>
                <mxCell id="negETv5rY9S69N76y5d6-58" value="" style="edgeStyle=orthogonalEdgeStyle;rounded=0;orthogonalLoop=1;jettySize=auto;html=1;" edge="1" source="negETv5rY9S69N76y5d6-59" target="negETv5rY9S69N76y5d6-64" parent="negETv5rY9S69N76y5d6-1">
                    <mxGeometry relative="1" as="geometry"/>
                </mxCell>
                <mxCell id="negETv5rY9S69N76y5d6-59" value="0 -&amp;gt; i" style="whiteSpace=wrap;html=1;" vertex="1" parent="negETv5rY9S69N76y5d6-1">
                    <mxGeometry x="1160" y="118.57" width="120" height="40" as="geometry"/>
                </mxCell>
                <mxCell id="negETv5rY9S69N76y5d6-60" style="edgeStyle=orthogonalEdgeStyle;rounded=0;orthogonalLoop=1;jettySize=auto;html=1;exitX=1;exitY=0.5;exitDx=0;exitDy=0;" edge="1" source="negETv5rY9S69N76y5d6-61" parent="negETv5rY9S69N76y5d6-1">
                    <mxGeometry relative="1" as="geometry">
                        <mxPoint x="1220" y="178.57" as="targetPoint"/>
                        <Array as="points">
                            <mxPoint x="1300" y="539"/>
                            <mxPoint x="1300" y="179"/>
                        </Array>
                    </mxGeometry>
                </mxCell>
                <mxCell id="negETv5rY9S69N76y5d6-61" value="i + 1 -&amp;gt; i" style="whiteSpace=wrap;html=1;" vertex="1" parent="negETv5rY9S69N76y5d6-1">
                    <mxGeometry x="1160" y="518.57" width="120" height="40" as="geometry"/>
                </mxCell>
                <mxCell id="negETv5rY9S69N76y5d6-62" style="edgeStyle=orthogonalEdgeStyle;rounded=0;orthogonalLoop=1;jettySize=auto;html=1;exitX=0.5;exitY=1;exitDx=0;exitDy=0;" edge="1" source="negETv5rY9S69N76y5d6-61" target="negETv5rY9S69N76y5d6-61" parent="negETv5rY9S69N76y5d6-1">
                    <mxGeometry relative="1" as="geometry"/>
                </mxCell>
                <mxCell id="negETv5rY9S69N76y5d6-63" value="" style="edgeStyle=orthogonalEdgeStyle;rounded=0;orthogonalLoop=1;jettySize=auto;html=1;" edge="1" source="negETv5rY9S69N76y5d6-64" target="negETv5rY9S69N76y5d6-50" parent="negETv5rY9S69N76y5d6-1">
                    <mxGeometry relative="1" as="geometry"/>
                </mxCell>
                <mxCell id="negETv5rY9S69N76y5d6-68" style="edgeStyle=orthogonalEdgeStyle;rounded=0;orthogonalLoop=1;jettySize=auto;html=1;exitX=0;exitY=0.5;exitDx=0;exitDy=0;entryX=0.5;entryY=0;entryDx=0;entryDy=0;" edge="1" parent="negETv5rY9S69N76y5d6-1" source="negETv5rY9S69N76y5d6-64" target="negETv5rY9S69N76y5d6-69">
                    <mxGeometry relative="1" as="geometry">
                        <mxPoint x="940" y="520" as="targetPoint"/>
                    </mxGeometry>
                </mxCell>
                <mxCell id="negETv5rY9S69N76y5d6-64" value="i &amp;lt; 7" style="rhombus;whiteSpace=wrap;html=1;" vertex="1" parent="negETv5rY9S69N76y5d6-1">
                    <mxGeometry x="1160" y="198.57" width="120" height="40" as="geometry"/>
                </mxCell>
                <mxCell id="negETv5rY9S69N76y5d6-65" style="edgeStyle=orthogonalEdgeStyle;rounded=0;orthogonalLoop=1;jettySize=auto;html=1;exitX=0.5;exitY=0;exitDx=0;exitDy=0;" edge="1" source="negETv5rY9S69N76y5d6-66" parent="negETv5rY9S69N76y5d6-1">
                    <mxGeometry relative="1" as="geometry">
                        <mxPoint x="1220" y="338.57" as="targetPoint"/>
                        <Array as="points">
                            <mxPoint x="1060" y="338.57"/>
                        </Array>
                    </mxGeometry>
                </mxCell>
                <mxCell id="negETv5rY9S69N76y5d6-66" value="(k + 1) % 11 -&amp;gt; k" style="whiteSpace=wrap;html=1;" vertex="1" parent="negETv5rY9S69N76y5d6-1">
                    <mxGeometry x="1000" y="358.57" width="120" height="40" as="geometry"/>
                </mxCell>
                <mxCell id="negETv5rY9S69N76y5d6-69" value="종료" style="rounded=1;whiteSpace=wrap;html=1;" vertex="1" parent="negETv5rY9S69N76y5d6-1">
                    <mxGeometry x="920" y="520" width="120" height="40" as="geometry"/>
                </mxCell>
            </root>
        </mxGraphModel>
    </diagram>
    <diagram id="r4lkycJh3cZRCy3KoVKm" name="해시탐색법 - 2">
        <mxGraphModel dx="569" dy="680" grid="1" gridSize="10" guides="1" tooltips="1" connect="1" arrows="1" fold="1" page="1" pageScale="1" pageWidth="827" pageHeight="1169" math="0" shadow="0">
            <root>
                <mxCell id="YwpqE0So_KGYMp7JitOt-0"/>
                <mxCell id="YwpqE0So_KGYMp7JitOt-1" parent="YwpqE0So_KGYMp7JitOt-0"/>
                <mxCell id="YwpqE0So_KGYMp7JitOt-2" value="" style="edgeStyle=orthogonalEdgeStyle;rounded=0;orthogonalLoop=1;jettySize=auto;html=1;" edge="1" parent="YwpqE0So_KGYMp7JitOt-1" source="YwpqE0So_KGYMp7JitOt-3" target="YwpqE0So_KGYMp7JitOt-5">
                    <mxGeometry relative="1" as="geometry"/>
                </mxCell>
                <mxCell id="YwpqE0So_KGYMp7JitOt-3" value="시작" style="rounded=1;whiteSpace=wrap;html=1;" vertex="1" parent="YwpqE0So_KGYMp7JitOt-1">
                    <mxGeometry x="240" y="40" width="120" height="40" as="geometry"/>
                </mxCell>
                <mxCell id="YwpqE0So_KGYMp7JitOt-4" value="" style="edgeStyle=orthogonalEdgeStyle;rounded=0;orthogonalLoop=1;jettySize=auto;html=1;" edge="1" parent="YwpqE0So_KGYMp7JitOt-1" source="YwpqE0So_KGYMp7JitOt-5" target="YwpqE0So_KGYMp7JitOt-7">
                    <mxGeometry relative="1" as="geometry"/>
                </mxCell>
                <mxCell id="YwpqE0So_KGYMp7JitOt-5" value="찾을값 x 입력" style="whiteSpace=wrap;html=1;" vertex="1" parent="YwpqE0So_KGYMp7JitOt-1">
                    <mxGeometry x="240" y="120" width="120" height="40" as="geometry"/>
                </mxCell>
                <mxCell id="YwpqE0So_KGYMp7JitOt-6" value="" style="edgeStyle=orthogonalEdgeStyle;rounded=0;orthogonalLoop=1;jettySize=auto;html=1;" edge="1" parent="YwpqE0So_KGYMp7JitOt-1" source="YwpqE0So_KGYMp7JitOt-7" target="YwpqE0So_KGYMp7JitOt-21">
                    <mxGeometry relative="1" as="geometry"/>
                </mxCell>
                <mxCell id="YwpqE0So_KGYMp7JitOt-7" value="x % 11 -&amp;gt; k" style="whiteSpace=wrap;html=1;" vertex="1" parent="YwpqE0So_KGYMp7JitOt-1">
                    <mxGeometry x="240" y="200" width="120" height="40" as="geometry"/>
                </mxCell>
                <mxCell id="YwpqE0So_KGYMp7JitOt-8" value="" style="edgeStyle=orthogonalEdgeStyle;rounded=0;orthogonalLoop=1;jettySize=auto;html=1;" edge="1" parent="YwpqE0So_KGYMp7JitOt-1" source="YwpqE0So_KGYMp7JitOt-12" target="YwpqE0So_KGYMp7JitOt-14">
                    <mxGeometry relative="1" as="geometry"/>
                </mxCell>
                <mxCell id="YwpqE0So_KGYMp7JitOt-9" value="YES" style="edgeLabel;html=1;align=center;verticalAlign=middle;resizable=0;points=[];" vertex="1" connectable="0" parent="YwpqE0So_KGYMp7JitOt-8">
                    <mxGeometry x="-0.05" y="1" relative="1" as="geometry">
                        <mxPoint as="offset"/>
                    </mxGeometry>
                </mxCell>
                <mxCell id="YwpqE0So_KGYMp7JitOt-10" style="edgeStyle=orthogonalEdgeStyle;rounded=0;orthogonalLoop=1;jettySize=auto;html=1;exitX=1;exitY=0.5;exitDx=0;exitDy=0;entryX=0.5;entryY=0;entryDx=0;entryDy=0;" edge="1" parent="YwpqE0So_KGYMp7JitOt-1" source="YwpqE0So_KGYMp7JitOt-12" target="YwpqE0So_KGYMp7JitOt-17">
                    <mxGeometry relative="1" as="geometry"/>
                </mxCell>
                <mxCell id="YwpqE0So_KGYMp7JitOt-11" value="NO" style="edgeLabel;html=1;align=center;verticalAlign=middle;resizable=0;points=[];" vertex="1" connectable="0" parent="YwpqE0So_KGYMp7JitOt-10">
                    <mxGeometry x="-0.45" y="-2" relative="1" as="geometry">
                        <mxPoint as="offset"/>
                    </mxGeometry>
                </mxCell>
                <mxCell id="YwpqE0So_KGYMp7JitOt-12" value="arrayH[k] = x" style="rhombus;whiteSpace=wrap;html=1;" vertex="1" parent="YwpqE0So_KGYMp7JitOt-1">
                    <mxGeometry x="240" y="360" width="120" height="40" as="geometry"/>
                </mxCell>
                <mxCell id="YwpqE0So_KGYMp7JitOt-13" value="" style="edgeStyle=orthogonalEdgeStyle;rounded=0;orthogonalLoop=1;jettySize=auto;html=1;" edge="1" parent="YwpqE0So_KGYMp7JitOt-1" source="YwpqE0So_KGYMp7JitOt-14" target="YwpqE0So_KGYMp7JitOt-15">
                    <mxGeometry relative="1" as="geometry"/>
                </mxCell>
                <mxCell id="YwpqE0So_KGYMp7JitOt-14" value="저장위치는 k입니다" style="shape=document;whiteSpace=wrap;html=1;boundedLbl=1;" vertex="1" parent="YwpqE0So_KGYMp7JitOt-1">
                    <mxGeometry x="240" y="440" width="120" height="40" as="geometry"/>
                </mxCell>
                <mxCell id="YwpqE0So_KGYMp7JitOt-15" value="종료" style="rounded=1;whiteSpace=wrap;html=1;" vertex="1" parent="YwpqE0So_KGYMp7JitOt-1">
                    <mxGeometry x="240" y="520" width="120" height="40" as="geometry"/>
                </mxCell>
                <mxCell id="YwpqE0So_KGYMp7JitOt-16" style="edgeStyle=orthogonalEdgeStyle;rounded=0;orthogonalLoop=1;jettySize=auto;html=1;exitX=0.5;exitY=1;exitDx=0;exitDy=0;" edge="1" parent="YwpqE0So_KGYMp7JitOt-1" source="YwpqE0So_KGYMp7JitOt-17">
                    <mxGeometry relative="1" as="geometry">
                        <mxPoint x="300" y="260" as="targetPoint"/>
                        <Array as="points">
                            <mxPoint x="460" y="500"/>
                            <mxPoint x="540" y="500"/>
                            <mxPoint x="540" y="260"/>
                        </Array>
                    </mxGeometry>
                </mxCell>
                <mxCell id="YwpqE0So_KGYMp7JitOt-17" value="(k+1) % 11 = k" style="whiteSpace=wrap;html=1;" vertex="1" parent="YwpqE0So_KGYMp7JitOt-1">
                    <mxGeometry x="400" y="440" width="120" height="40" as="geometry"/>
                </mxCell>
                <mxCell id="YwpqE0So_KGYMp7JitOt-18" value="YES" style="edgeStyle=orthogonalEdgeStyle;rounded=0;orthogonalLoop=1;jettySize=auto;html=1;" edge="1" parent="YwpqE0So_KGYMp7JitOt-1" source="YwpqE0So_KGYMp7JitOt-21" target="YwpqE0So_KGYMp7JitOt-12">
                    <mxGeometry relative="1" as="geometry"/>
                </mxCell>
                <mxCell id="YwpqE0So_KGYMp7JitOt-19" style="edgeStyle=orthogonalEdgeStyle;rounded=0;orthogonalLoop=1;jettySize=auto;html=1;exitX=0;exitY=0.5;exitDx=0;exitDy=0;entryX=0.5;entryY=0;entryDx=0;entryDy=0;" edge="1" parent="YwpqE0So_KGYMp7JitOt-1" source="YwpqE0So_KGYMp7JitOt-21" target="YwpqE0So_KGYMp7JitOt-22">
                    <mxGeometry relative="1" as="geometry"/>
                </mxCell>
                <mxCell id="YwpqE0So_KGYMp7JitOt-20" value="NO" style="edgeLabel;html=1;align=center;verticalAlign=middle;resizable=0;points=[];" vertex="1" connectable="0" parent="YwpqE0So_KGYMp7JitOt-19">
                    <mxGeometry x="-0.55" y="3" relative="1" as="geometry">
                        <mxPoint as="offset"/>
                    </mxGeometry>
                </mxCell>
                <mxCell id="YwpqE0So_KGYMp7JitOt-21" value="arrayH[k] != 0" style="rhombus;whiteSpace=wrap;html=1;" vertex="1" parent="YwpqE0So_KGYMp7JitOt-1">
                    <mxGeometry x="240" y="280" width="120" height="40" as="geometry"/>
                </mxCell>
                <mxCell id="YwpqE0So_KGYMp7JitOt-22" value="존재하지 않는 값입니다" style="shape=document;whiteSpace=wrap;html=1;boundedLbl=1;" vertex="1" parent="YwpqE0So_KGYMp7JitOt-1">
                    <mxGeometry x="80" y="440" width="120" height="40" as="geometry"/>
                </mxCell>
            </root>
        </mxGraphModel>
    </diagram>
</mxfile>